<svg width="15" height="15" viewBox="0 0 15 15" fill="none" xmlns="http://www.w3.org/2000/svg">
<path d="M13.1466 10.3931L11.3208 6.12896C10.7025 4.68229 9.56498 4.62396 8.80081 6.00062L7.69831 7.98979C7.13831 8.99896 6.09414 9.08646 5.37081 8.18229L5.24248 8.01896C4.48998 7.07396 3.42831 7.19062 2.88581 8.26979L1.88248 10.2823C1.17664 11.6823 2.19748 13.3331 3.76081 13.3331H11.2041C12.7208 13.3331 13.7416 11.7873 13.1466 10.3931Z" stroke="#292D32" stroke-width="1.5" stroke-linecap="round" stroke-linejoin="round"/>
<path d="M4.56586 5.1665C5.53236 5.1665 6.31586 4.383 6.31586 3.4165C6.31586 2.45001 5.53236 1.6665 4.56586 1.6665C3.59936 1.6665 2.81586 2.45001 2.81586 3.4165C2.81586 4.383 3.59936 5.1665 4.56586 5.1665Z" stroke="#292D32" stroke-width="1.5" stroke-linecap="round" stroke-linejoin="round"/>
</svg>
