<svg width="25" height="25" viewBox="0 0 25 25" fill="none" xmlns="http://www.w3.org/2000/svg">
<path d="M12.25 2.42C6.73 2.42 2.25 6.9 2.25 12.42C2.25 17.94 6.73 22.42 12.25 22.42C17.77 22.42 22.25 17.94 22.25 12.42C22.25 6.9 17.78 2.42 12.25 2.42Z" fill="#90A3BF"/>
<path d="M20.25 12.42C20.25 8.00172 16.6683 4.42 12.25 4.42C7.83172 4.42 4.25 8.00172 4.25 12.42C4.25 16.8383 7.83172 20.42 12.25 20.42C16.6683 20.42 20.25 16.8383 20.25 12.42Z" fill="white"/>
<path d="M12.25 6.42C8.938 6.42 6.25 9.108 6.25 12.42C6.25 15.732 8.938 18.42 12.25 18.42C15.562 18.42 18.25 15.732 18.25 12.42C18.25 9.108 15.568 6.42 12.25 6.42Z" fill="#90A3BF"/>
<path d="M16.25 12.42C16.25 10.2109 14.4591 8.42 12.25 8.42C10.0409 8.42 8.25 10.2109 8.25 12.42C8.25 14.6291 10.0409 16.42 12.25 16.42C14.4591 16.42 16.25 14.6291 16.25 12.42Z" fill="white"/>
<path d="M13.25 17.42H11.25V21.42H13.25V17.42Z" fill="#90A3BF"/>
<path d="M21.25 11.42H17.25V13.42H21.25V11.42Z" fill="#90A3BF"/>
<path d="M7.25 11.42H3.25V13.42H7.25V11.42Z" fill="#90A3BF"/>
</svg>
