<svg width="18" height="21" viewBox="0 0 18 21" fill="none" xmlns="http://www.w3.org/2000/svg">
<path d="M17.6201 6.95C16.5701 2.33 12.5401 0.25 9.0001 0.25C9.0001 0.25 9.0001 0.25 8.9901 0.25C5.4601 0.25 1.4201 2.32 0.370095 6.94C-0.799905 12.1 2.3601 16.47 5.2201 19.22C6.2801 20.24 7.6401 20.75 9.0001 20.75C10.3601 20.75 11.7201 20.24 12.7701 19.22C15.6301 16.47 18.7901 12.11 17.6201 6.95ZM9.0001 11.96C7.2601 11.96 5.85009 10.55 5.85009 8.81C5.85009 7.07 7.2601 5.66 9.0001 5.66C10.7401 5.66 12.1501 7.07 12.1501 8.81C12.1501 10.55 10.7401 11.96 9.0001 11.96Z" fill="#596780"/>
</svg>
