<svg width="24" height="64" viewBox="0 0 24 64" fill="none" xmlns="http://www.w3.org/2000/svg">
<mask id="mask0_3102_3701" style="mask-type:luminance" maskUnits="userSpaceOnUse" x="0" y="39" width="24" height="25">
<path d="M24 39.5H0V63.5H24V39.5Z" fill="white"/>
</mask>
<g mask="url(#mask0_3102_3701)">
<path d="M20.6201 47.95C19.5701 43.33 15.5401 41.25 12.0001 41.25C12.0001 41.25 12.0001 41.25 11.9901 41.25C8.4601 41.25 4.4201 43.32 3.3701 47.94C2.2001 53.1 5.3601 57.47 8.2201 60.22C9.2801 61.24 10.6401 61.75 12.0001 61.75C13.3601 61.75 14.7201 61.24 15.7701 60.22C18.6301 57.47 21.7901 53.11 20.6201 47.95ZM12.0001 52.96C10.2601 52.96 8.85009 51.55 8.85009 49.81C8.85009 48.07 10.2601 46.66 12.0001 46.66C13.7401 46.66 15.1501 48.07 15.1501 49.81C15.1501 51.55 13.7401 52.96 12.0001 52.96Z" fill="#596780"/>
</g>
<path d="M13 20.5H11V38.5H13V20.5Z" fill="#596780"/>
<path d="M12 17C16.1421 17 19.5 13.6421 19.5 9.5C19.5 5.35786 16.1421 2 12 2C7.85786 2 4.5 5.35786 4.5 9.5C4.5 13.6421 7.85786 17 12 17Z" stroke="#596780" stroke-width="3"/>
</svg>
