<svg width="24" height="25" viewBox="0 0 24 25" fill="none" xmlns="http://www.w3.org/2000/svg">
<path d="M9 2.42C6.38 2.42 4.25 4.55 4.25 7.17C4.25 9.74 6.26 11.82 8.88 11.91C8.96 11.9 9.04 11.9 9.1 11.91C9.12 11.91 9.13 11.91 9.15 11.91C9.16 11.91 9.16 11.91 9.17 11.91C11.73 11.82 13.74 9.74 13.75 7.17C13.75 4.55 11.62 2.42 9 2.42Z" fill="#90A3BF"/>
<path d="M14.08 14.57C11.29 12.71 6.73996 12.71 3.92996 14.57C2.65996 15.42 1.95996 16.57 1.95996 17.8C1.95996 19.03 2.65996 20.17 3.91996 21.01C5.31996 21.95 7.15996 22.42 8.99996 22.42C10.84 22.42 12.68 21.95 14.08 21.01C15.34 20.16 16.04 19.02 16.04 17.78C16.03 16.55 15.34 15.41 14.08 14.57Z" fill="#90A3BF"/>
<path d="M19.9899 7.76C20.1499 9.7 18.7699 11.4 16.8599 11.63C16.8499 11.63 16.8499 11.63 16.8399 11.63H16.8099C16.7499 11.63 16.6899 11.63 16.6399 11.65C15.6699 11.7 14.7799 11.39 14.1099 10.82C15.1399 9.9 15.7299 8.52 15.6099 7.02C15.5399 6.21 15.2599 5.47 14.8399 4.84C15.2199 4.65 15.6599 4.53 16.1099 4.49C18.0699 4.32 19.8199 5.78 19.9899 7.76Z" fill="#90A3BF"/>
<path d="M21.9902 17.01C21.9102 17.98 21.2902 18.82 20.2502 19.39C19.2502 19.94 17.9902 20.2 16.7402 20.17C17.4602 19.52 17.8802 18.71 17.9602 17.85C18.0602 16.61 17.4702 15.42 16.2902 14.47C15.6202 13.94 14.8402 13.52 13.9902 13.21C16.2002 12.57 18.9802 13 20.6902 14.38C21.6102 15.12 22.0802 16.05 21.9902 17.01Z" fill="#90A3BF"/>
</svg>
