<svg width="24" height="24" viewBox="0 0 24 24" fill="none" xmlns="http://www.w3.org/2000/svg">
<path d="M12.89 5.88H5.11C3.4 5.88 2 7.28 2 8.99V20.35C2 21.8 3.04 22.42 4.31 21.71L8.24 19.52C8.66 19.29 9.34 19.29 9.75 19.52L13.68 21.71C14.96 22.41 16 21.8 16 20.35V8.99C16 7.28 14.6 5.88 12.89 5.88Z" fill="#292D32"/>
<path d="M21.9998 5.11V16.47C21.9998 17.92 20.9598 18.53 19.6898 17.83L17.7598 16.75C17.5998 16.66 17.4998 16.49 17.4998 16.31V8.99C17.4998 6.45 15.4298 4.38 12.8898 4.38H8.81984C8.44984 4.38 8.18984 3.99 8.35984 3.67C8.87984 2.68 9.91984 2 11.1098 2H18.8898C20.5998 2 21.9998 3.4 21.9998 5.11Z" fill="#292D32"/>
</svg>
