<svg width="23" height="22" viewBox="0 0 23 22" fill="none" xmlns="http://www.w3.org/2000/svg">
<path d="M21.84 7.75L19.84 6.75C19.47 6.57 19.01 6.71 18.83 7.08C18.64 7.46 18.79 7.91 19.16 8.09L20.75 8.88V13.67L17 13.68V3.42C17 1.42 15.66 0.419998 14 0.419998H6C4.34 0.419998 3 1.42 3 3.42V19.67H1.5C1.09 19.67 0.75 20.01 0.75 20.42C0.75 20.83 1.09 21.17 1.5 21.17H18.5C18.91 21.17 19.25 20.83 19.25 20.42C19.25 20.01 18.91 19.67 18.5 19.67H17V15.18L21.5 15.17C21.92 15.17 22.25 14.83 22.25 14.42V8.42C22.25 8.14 22.09 7.88 21.84 7.75ZM5.5 5.31C5.5 3.92 6.35 3.42 7.39 3.42H12.62C13.65 3.42 14.5 3.92 14.5 5.31V6.54C14.5 7.92 13.65 8.42 12.61 8.42H7.39C6.35 8.42 5.5 7.92 5.5 6.53V5.31ZM6 10.67H9C9.41 10.67 9.75 11.01 9.75 11.42C9.75 11.83 9.41 12.17 9 12.17H6C5.59 12.17 5.25 11.83 5.25 11.42C5.25 11.01 5.59 10.67 6 10.67Z" fill="#90A3BF"/>
</svg>
